<svg width="700" height="500" xmlns="http://www.w3.org/2000/svg"><path d="M 183 114 C 269 65, 393 165, 410 -34" stroke="black" fill="transparent"/><path d="M 183 114 C 124 162, 137 277, 67 227" stroke="black" fill="transparent"/><path d="M 222 232 C 309 442, 514 67, 534 450" stroke="black" fill="transparent"/><path d="M 520 137 C 642 45, 645 255, 642 45" stroke="black" fill="transparent"/><path d="M 102 139 C 152 37, 70 40, 102 139" stroke="black" fill="transparent"/><path d="M 67 227 C 39 197, 22 214, 27 359" stroke="black" fill="transparent"/><path d="M 27 359 C 32 419, 169 404, 330 380" stroke="black" fill="transparent"/><path d="M 220 166 C 423 104, 465 131, 465 231" stroke="black" fill="transparent"/><path d="M 465 231 C 382 206, 323 231, 220 183" stroke="black" fill="transparent"/><path d="M 220 183 C 288 191, 220 166, 465 231" stroke="black" fill="transparent"/><path d="M 25 291 C 210 283, 210 346, 27 359" stroke="black" fill="transparent"/></svg>