<svg xmlns="http://www.w3.org/2000/svg" width="700" height="500"><path d="M 183 114 C 93 105, -4 199, 190 54" stroke="black" fill="transparent"/><path d="M 183 114 C 170 159, 153 245, 190 387" stroke="black" fill="transparent"/><path d="M 11 394 C 38 377, 83 369, 693 425" stroke="black" fill="transparent"/><path d="M 265 392 C 228 255, 246 149, 275 127" stroke="black" fill="transparent"/><path d="M 168 180 C 188 204, 215 217, 243 222" stroke="black" fill="transparent"/><path d="M 171 242 C 193 267, 218 284, 248 294" stroke="black" fill="transparent"/><path d="M 178 307 C 208 334, 238 349, 260 362" stroke="black" fill="transparent"/><path d="M 275 127 C 418 177, 371 189, 310 70" stroke="black" fill="transparent"/><path d="M 190 54 C 136 17, 150 10, 226 67" stroke="black" fill="transparent"/><path d="M 226 67 C 256 42, 443 24, 310 70" stroke="black" fill="transparent"/><path d="M 443 269 C 443 269, 446 400, 446 400" stroke="black" fill="transparent"/><path d="M 580 272 C 580 272, 591 417, 591 417" stroke="black" fill="transparent"/><path d="M 503 405 C 503 405, 500 360, 500 360" stroke="black" fill="transparent"/><path d="M 535 360 C 535 360, 541 412, 541 412" stroke="black" fill="transparent"/><path d="M 500 360 C 500 360, 535 360, 535 360" stroke="black" fill="transparent"/><path d="M 503 405 C 503 405, 541 412, 541 412" stroke="black" fill="transparent"/><path d="M 443 269 C 443 269, 580 272, 580 272" stroke="black" fill="transparent"/><path d="M 443 269 C 443 269, 498 162, 498 162" stroke="black" fill="transparent"/><path d="M 498 162 C 498 162, 580 272, 580 272" stroke="black" fill="transparent"/></svg>