<svg width="700" height="500" xmlns="http://www.w3.org/2000/svg"><path d="M 183 114 C 177 85, 393 165, 486 8" stroke-width="2" stroke="#29cdba" fill="transparent"/><path d="M 327 310 C 459 237, 126 460, 526 328" stroke-width="2" stroke="#f81be8" fill="transparent"/><path d="M 467 71 C 282 470, 362 377, 267 365" stroke-width="2" stroke="#c99a66" fill="transparent"/><path d="M 558 431 C 667 107, 56 489, 142 271" stroke-width="2" stroke="#5d0517" fill="transparent"/><path d="M 384 463 C 398 176, 415 130, 213 474" stroke-width="2" stroke="#9bb454" fill="transparent"/><path d="M 373 138 C 270 4, 381 195, 125 416" stroke-width="2" stroke="#8770e9" fill="transparent"/><path d="M 446 271 C 213 143, 124 105, 282 455" stroke-width="2" stroke="#7e97ea" fill="transparent"/><path d="M 364 457 C 350 413, 108 224, 378 212" stroke-width="2" stroke="#b03bfb" fill="transparent"/><path d="M 554 101 C 432 440, 376 132, 539 488" stroke-width="2" stroke="#021afe" fill="transparent"/><path d="M 539 205 C 70 66, 378 33, 201 403" stroke-width="2" stroke="#e6053c" fill="transparent"/><path d="M 552 244 C 501 220, 286 59, 665 311" stroke-width="2" stroke="#5cbba8" fill="transparent"/><path d="M 129 469 C 417 403, 571 19, 75 291" stroke-width="2" stroke="#eff700" fill="transparent"/><path d="M 397 147 C 386 35, 106 317, 319 376" stroke-width="2" stroke="#484764" fill="transparent"/><path d="M 529 497 C 319 230, 668 292, 115 160" stroke-width="2" stroke="#c51473" fill="transparent"/><path d="M 18 255 C 146 49, 221 445, 179 12" stroke-width="2" stroke="#642411" fill="transparent"/><path d="M 150 307 C 300 466, 464 376, 514 13" stroke-width="2" stroke="#10af3b" fill="transparent"/><path d="M 227 135 C 59 64, 632 449, 637 272" stroke-width="2" stroke="#bb6f22" fill="transparent"/><path d="M 421 142 C 695 471, 137 265, 93 182" stroke-width="2" stroke="#1c7f23" fill="transparent"/><path d="M 228 471 C 76 96, 543 237, 13 462" stroke-width="2" stroke="#4ee898" fill="transparent"/><path d="M 618 372 C 88 131, 117 83, 496 176" stroke-width="2" stroke="#5f4e77" fill="transparent"/><path d="M 490 1 C 472 275, 244 410, 305 361" stroke-width="2" stroke="#aa1a55" fill="transparent"/><path d="M 82 458 C 664 303, 407 145, 104 152" stroke-width="2" stroke="#d33694" fill="transparent"/><path d="M 699 157 C 246 432, 40 78, 211 190" stroke-width="2" stroke="#1549fd" fill="transparent"/><path d="M 30 122 C 105 180, 136 56, 126 478" stroke-width="2" stroke="#295448" fill="transparent"/><path d="M 282 242 C 224 363, 162 376, 100 464" stroke-width="2" stroke="#ac5bf3" fill="transparent"/><path d="M 150 32 C 71 27, 331 119, 330 67" stroke-width="2" stroke="#06c433" fill="transparent"/><path d="M 599 19 C 299 4, 59 227, 413 332" stroke-width="2" stroke="#7647de" fill="transparent"/><path d="M 66 416 C 640 410, 284 124, 142 64" stroke-width="2" stroke="#23856c" fill="transparent"/><path d="M 379 82 C 287 88, 148 328, 259 491" stroke-width="2" stroke="#20ba86" fill="transparent"/><path d="M 687 294 C 501 287, 272 179, 555 181" stroke-width="2" stroke="#b79950" fill="transparent"/><path d="M 639 189 C 340 333, 605 272, 127 350" stroke-width="2" stroke="#a0f210" fill="transparent"/><path d="M 24 78 C 469 104, 681 370, 484 208" stroke-width="2" stroke="#4478fa" fill="transparent"/><path d="M 125 115 C 422 201, 340 458, 498 287" stroke-width="2" stroke="#6a7e4c" fill="transparent"/><path d="M 690 291 C 81 181, 536 268, 55 6" stroke-width="2" stroke="#94fb31" fill="transparent"/><path d="M 673 224 C 350 245, 660 358, 179 116" stroke-width="2" stroke="#e9e525" fill="transparent"/><path d="M 667 496 C 313 39, 54 174, 459 56" stroke-width="2" stroke="#aad2b2" fill="transparent"/></svg>