<svg width="700" height="500" xmlns="http://www.w3.org/2000/svg"><path d="M 183 114 C 177 85, 383 157, 486 8" stroke-width="2" stroke="#29cdba" fill="transparent"/><path d="M 438 138 C 333 220, 126 460, 526 328" stroke-width="2" stroke="#f81be8" fill="transparent"/><path d="M 48 187 C 238 45, 188 190, 232 270" stroke-width="2" stroke="#c99a66" fill="transparent"/><path d="M 558 431 C 437 373, 56 489, 142 271" stroke-width="2" stroke="#5d0517" fill="transparent"/><path d="M 438 138 C 490 107, 545 93, 577 120" stroke-width="2" stroke="#ff8c00" fill="transparent"/><path d="M 577 120 C 620 150, 610 187, 603 220" stroke-width="2" stroke="#00ff00" fill="transparent"/><path d="M 526 328 C 600 295, 595 260, 603 220" stroke-width="2" stroke="#0000ce" fill="transparent"/><path d="M 430 263 C 538 158, 430 263, 538 158" stroke-width="2" stroke="#000000" fill="transparent"/><path d="M 490 275 C 490 275, 490 275, 522 227" stroke-width="2" stroke="#000000" fill="transparent"/><path d="M 77 330 C 117 197, 117 197, 77 330" stroke-width="2" stroke="#0000dc" fill="transparent"/></svg>